<svg width="1714" height="857" viewBox="0 0 1714 857" fill="none" xmlns="http://www.w3.org/2000/svg">
<rect width="1714" height="857" fill="url(#paint0_linear)"/>
<path d="M557.256 374.909V484H582.931V416.617H583.837L610.044 483.308H626.45L652.658 416.99H653.563V484H679.238V374.909H646.585L618.886 442.452H617.608L589.909 374.909H557.256ZM733.877 485.545C759.605 485.545 775.212 468.553 775.212 443.357C775.212 418.109 759.605 401.116 733.877 401.116C708.149 401.116 692.541 418.109 692.541 443.357C692.541 468.553 708.149 485.545 733.877 485.545ZM734.036 465.889C724.395 465.889 719.068 456.727 719.068 443.197C719.068 429.614 724.395 420.399 734.036 420.399C743.358 420.399 748.685 429.614 748.685 443.197C748.685 456.727 743.358 465.889 734.036 465.889ZM818.438 485.172C830.796 485.172 838.147 478.3 841.449 470.737H842.248V484H868.03V374.909H841.982V416.191H841.449C838.36 408.68 831.222 401.116 818.332 401.116C801.233 401.116 785.732 414.273 785.732 443.144C785.732 471.003 800.381 485.172 818.438 485.172ZM827.493 464.877C817.852 464.877 812.472 456.301 812.472 443.091C812.472 429.934 817.799 421.464 827.493 421.464C837.028 421.464 842.568 429.721 842.568 443.091C842.568 456.354 836.975 464.877 827.493 464.877ZM937.29 448.684C937.29 458.219 931.218 463.545 923.494 463.545C915.504 463.545 910.603 458.112 910.55 449.217V402.182H884.502V454.33C884.556 472.814 895.795 485.065 912.627 485.065C924.879 485.065 933.988 478.78 937.61 468.766H938.462V484H963.284V402.182H937.29V448.684ZM1005.91 374.909H979.864V484H1005.91V374.909ZM1045.56 485.385C1056.95 485.385 1064.84 480.964 1069.31 472.601H1069.95V484H1094.45V428.389C1094.45 411.077 1079.06 401.116 1058.23 401.116C1036.23 401.116 1023.77 412.196 1021.69 427.111L1045.72 427.963C1046.83 422.743 1051.15 419.547 1058.02 419.547C1064.41 419.547 1068.46 422.636 1068.46 428.123V428.389C1068.46 433.396 1063.03 434.462 1049.07 435.687C1032.5 437.072 1018.66 443.197 1018.66 461.308C1018.66 477.501 1029.89 485.385 1045.56 485.385ZM1053.6 468.339C1047.58 468.339 1043.32 465.463 1043.32 460.03C1043.32 454.756 1047.47 451.56 1054.88 450.442C1059.72 449.749 1065.69 448.684 1068.62 447.139V454.916C1068.62 462.906 1061.91 468.339 1053.6 468.339ZM1110.38 484H1136.43V439.575C1136.43 429.827 1143.35 423.276 1152.68 423.276C1155.76 423.276 1160.4 423.808 1162.9 424.661V402.022C1160.72 401.436 1158 401.063 1155.61 401.063C1146.66 401.063 1139.52 406.283 1136.54 417.097H1135.68V402.182H1110.38V484Z" fill="white"/>
<defs>
<linearGradient id="paint0_linear" x1="0" y1="857" x2="1870.5" y2="3.80957e-05" gradientUnits="userSpaceOnUse">
<stop stop-color="#8F00FF"/>
<stop offset="1" stop-color="#220059"/>
</linearGradient>
</defs>
</svg>
