<svg width="1714" height="857" viewBox="0 0 1714 857" fill="none" xmlns="http://www.w3.org/2000/svg">
<rect width="1714" height="857" fill="url(#paint0_linear)"/>
<path d="M637.256 484H663.624V450.122H681.521C706.504 450.122 722.111 435.314 722.111 412.675C722.111 390.25 706.823 374.909 682.32 374.909H637.256V484ZM663.624 429.348V396.163H676.621C688.446 396.163 694.785 402.555 694.785 412.675C694.785 422.743 688.446 429.348 676.621 429.348H663.624ZM755.243 485.385C766.642 485.385 774.526 480.964 779 472.601H779.639V484H804.142V428.389C804.142 411.077 788.748 401.116 767.92 401.116C745.921 401.116 733.457 412.196 731.379 427.111L755.403 427.963C756.521 422.743 760.836 419.547 767.707 419.547C774.099 419.547 778.148 422.636 778.148 428.123V428.389C778.148 433.396 772.714 434.462 758.759 435.687C742.192 437.072 728.343 443.197 728.343 461.308C728.343 477.501 739.582 485.385 755.243 485.385ZM763.286 468.339C757.267 468.339 753.006 465.463 753.006 460.03C753.006 454.756 757.161 451.56 764.565 450.442C769.412 449.749 775.378 448.684 778.308 447.139V454.916C778.308 462.906 771.596 468.339 763.286 468.339ZM858.208 515.694C882.871 515.694 899.703 504.455 899.703 484.32V402.182H873.762V416.191H873.016C869.874 408.68 862.736 401.116 849.845 401.116C832.746 401.116 817.246 414.273 817.246 442.984C817.246 470.79 832.001 482.881 849.952 482.881C861.99 482.881 870.033 477.288 873.123 469.724H874.028V484.107C874.028 493.908 867.636 497.636 858.901 497.636C850.538 497.636 845.531 494.44 844.146 490.072L819.483 491.457C821.401 505.094 834.877 515.694 858.208 515.694ZM859.007 463.918C849.366 463.918 843.986 456.088 843.986 442.984C843.986 429.934 849.312 421.464 859.007 421.464C868.542 421.464 874.082 429.721 874.082 442.984C874.082 456.141 868.489 463.918 859.007 463.918ZM954.555 485.545C976.021 485.545 990.137 475.158 993.12 459.071L969.203 458.379C967.179 463.812 961.852 466.741 955.034 466.741C945.02 466.741 938.841 460.083 938.841 450.069V449.376H993.387V442.878C993.387 415.925 976.98 401.116 953.756 401.116C929.04 401.116 913.166 418.055 913.166 443.411C913.166 469.618 928.827 485.545 954.555 485.545ZM938.841 434.249C939.214 426.099 945.659 419.92 954.289 419.92C962.865 419.92 969.044 425.886 969.15 434.249H938.841ZM1078.12 427.164C1076.74 410.971 1063.47 401.116 1041.31 401.116C1019.15 401.116 1005.04 410.758 1005.15 427.164C1005.04 439.735 1013.08 447.832 1029.44 450.868L1043.71 453.585C1050.48 454.916 1053.56 457.047 1053.67 460.669C1053.56 464.771 1048.98 467.487 1042.33 467.487C1034.92 467.487 1029.91 464.291 1028.8 458.325L1003.07 458.964C1004.93 475.158 1018.83 485.545 1042.22 485.545C1064.11 485.545 1080.04 474.625 1080.15 457.793C1080.04 445.861 1072.16 438.776 1055.86 435.634L1040.09 432.651C1033.16 431.266 1030.93 428.815 1030.98 425.673C1030.93 421.518 1035.77 418.961 1041.79 418.961C1048.66 418.961 1053.46 422.636 1054.2 427.803L1078.12 427.164Z" fill="white"/>
<defs>
<linearGradient id="paint0_linear" x1="0" y1="857" x2="1870.5" y2="3.80957e-05" gradientUnits="userSpaceOnUse">
<stop stop-color="#8F00FF"/>
<stop offset="1" stop-color="#220059"/>
</linearGradient>
</defs>
</svg>
