<svg width="1714" height="857" viewBox="0 0 1714 857" fill="none" xmlns="http://www.w3.org/2000/svg">
<rect width="1714" height="857" fill="url(#paint0_linear)"/>
<path d="M587.256 484H613.624V450.122H631.521C656.504 450.122 672.111 435.314 672.111 412.675C672.111 390.25 656.823 374.909 632.32 374.909H587.256V484ZM613.624 429.348V396.163H626.621C638.446 396.163 644.785 402.555 644.785 412.675C644.785 422.743 638.446 429.348 626.621 429.348H613.624ZM711.156 374.909H685.108V484H711.156V374.909ZM780.523 448.684C780.523 458.219 774.45 463.545 766.726 463.545C758.736 463.545 753.836 458.112 753.782 449.217V402.182H727.735V454.33C727.788 472.814 739.028 485.065 755.86 485.065C768.111 485.065 777.22 478.78 780.842 468.766H781.694V484H806.517V402.182H780.523V448.684ZM861.235 515.694C885.898 515.694 902.73 504.455 902.73 484.32V402.182H876.789V416.191H876.044C872.901 408.68 865.763 401.116 852.873 401.116C835.774 401.116 820.273 414.273 820.273 442.984C820.273 470.79 835.028 482.881 852.979 482.881C865.017 482.881 873.061 477.288 876.15 469.724H877.056V484.107C877.056 493.908 870.664 497.636 861.928 497.636C853.565 497.636 848.558 494.44 847.173 490.072L822.51 491.457C824.428 505.094 837.904 515.694 861.235 515.694ZM862.034 463.918C852.393 463.918 847.013 456.088 847.013 442.984C847.013 429.934 852.34 421.464 862.034 421.464C871.569 421.464 877.109 429.721 877.109 442.984C877.109 456.141 871.516 463.918 862.034 463.918ZM919.336 484H945.384V402.182H919.336V484ZM932.387 392.647C939.791 392.647 945.757 387.054 945.757 380.183C945.757 373.311 939.791 367.771 932.387 367.771C925.036 367.771 919.017 373.311 919.017 380.183C919.017 387.054 925.036 392.647 932.387 392.647ZM988.011 437.338C988.064 428.016 993.498 422.477 1001.75 422.477C1010.01 422.477 1014.91 427.91 1014.86 436.965V484H1040.91V431.852C1040.96 413.421 1029.72 401.116 1012.51 401.116C1000.42 401.116 991.26 407.242 987.638 417.203H986.733V402.182H961.963V484H988.011V437.338ZM1128.46 427.164C1127.08 410.971 1113.81 401.116 1091.66 401.116C1069.5 401.116 1055.38 410.758 1055.49 427.164C1055.38 439.735 1063.42 447.832 1079.78 450.868L1094.05 453.585C1100.82 454.916 1103.91 457.047 1104.01 460.669C1103.91 464.771 1099.33 467.487 1092.67 467.487C1085.26 467.487 1080.26 464.291 1079.14 458.325L1053.41 458.964C1055.27 475.158 1069.18 485.545 1092.56 485.545C1114.45 485.545 1130.38 474.625 1130.49 457.793C1130.38 445.861 1122.5 438.776 1106.2 435.634L1090.43 432.651C1083.51 431.266 1081.27 428.815 1081.32 425.673C1081.27 421.518 1086.12 418.961 1092.13 418.961C1099.01 418.961 1103.8 422.636 1104.55 427.803L1128.46 427.164Z" fill="white"/>
<defs>
<linearGradient id="paint0_linear" x1="0" y1="857" x2="1870.5" y2="3.80957e-05" gradientUnits="userSpaceOnUse">
<stop stop-color="#8F00FF"/>
<stop offset="1" stop-color="#220059"/>
</linearGradient>
</defs>
</svg>
