<svg width="32" height="44" viewBox="0 0 32 44" fill="none" xmlns="http://www.w3.org/2000/svg">
<path fill-rule="evenodd" clip-rule="evenodd" d="M20.11 41.9739C24.8507 35.9991 32 25.5402 32 16.8037C32 7.52329 24.8366 0 16 0C7.16344 0 0 7.52329 0 16.8037C0 25.5402 7.14934 35.9991 11.89 41.9739C14.0319 44.6734 17.9681 44.6734 20.11 41.9739ZM21.5425 16.9326C21.5425 20.0498 19.0612 22.5768 16.0003 22.5768C12.9394 22.5768 10.4581 20.0498 10.4581 16.9326C10.4581 13.8154 12.9394 11.2884 16.0003 11.2884C19.0612 11.2884 21.5425 13.8154 21.5425 16.9326Z" fill="#008080"/>
</svg>
