<svg width="1714" height="857" viewBox="0 0 1714 857" fill="none" xmlns="http://www.w3.org/2000/svg">
<rect width="1714" height="857" fill="url(#paint0_linear)"/>
<path d="M539.288 508.183H584.831V489.06H564.536V393.02H584.831V373.897H539.288V508.183ZM667.408 427.164C666.023 410.971 652.76 401.116 630.601 401.116C608.442 401.116 594.326 410.758 594.432 427.164C594.326 439.735 602.369 447.832 618.722 450.868L632.998 453.585C639.763 454.916 642.852 457.047 642.959 460.669C642.852 464.771 638.271 467.487 631.613 467.487C624.209 467.487 619.202 464.291 618.083 458.325L592.355 458.964C594.219 475.158 608.122 485.545 631.506 485.545C653.399 485.545 669.326 474.625 669.432 457.793C669.326 445.861 661.442 438.776 645.143 435.634L629.376 432.651C622.451 431.266 620.214 428.815 620.267 425.673C620.214 421.518 625.061 418.961 631.08 418.961C637.952 418.961 642.746 422.636 643.491 427.803L667.408 427.164ZM720.449 485.545C743.46 485.545 757.736 472.175 758.428 451.933H734.085C733.126 460.616 727.906 465.357 720.768 465.357C711.607 465.357 705.641 457.633 705.641 443.091C705.641 428.656 711.66 420.932 720.768 420.932C728.226 420.932 733.073 425.992 734.085 434.355H758.428C757.842 414.22 743.141 401.116 720.396 401.116C694.668 401.116 679.114 418.268 679.114 443.357C679.114 468.339 694.561 485.545 720.449 485.545ZM811.922 373.897H766.378V393.02H786.673V489.06H766.378V508.183H811.922V373.897ZM842.51 508.183H888.054V489.06H867.759V393.02H888.054V373.897H842.51V508.183ZM949.697 369.795H927.485L892.328 500.406H914.541L949.697 369.795ZM1030.84 427.164C1029.45 410.971 1016.19 401.116 994.028 401.116C971.869 401.116 957.754 410.758 957.86 427.164C957.754 439.735 965.797 447.832 982.15 450.868L996.425 453.585C1003.19 454.916 1006.28 457.047 1006.39 460.669C1006.28 464.771 1001.7 467.487 995.04 467.487C987.636 467.487 982.629 464.291 981.511 458.325L955.783 458.964C957.647 475.158 971.55 485.545 994.934 485.545C1016.83 485.545 1032.75 474.625 1032.86 457.793C1032.75 445.861 1024.87 438.776 1008.57 435.634L992.803 432.651C985.879 431.266 983.641 428.815 983.695 425.673C983.641 421.518 988.489 418.961 994.508 418.961C1001.38 418.961 1006.17 422.636 1006.92 427.803L1030.84 427.164ZM1083.88 485.545C1106.89 485.545 1121.16 472.175 1121.86 451.933H1097.51C1096.55 460.616 1091.33 465.357 1084.2 465.357C1075.03 465.357 1069.07 457.633 1069.07 443.091C1069.07 428.656 1075.09 420.932 1084.2 420.932C1091.65 420.932 1096.5 425.992 1097.51 434.355H1121.86C1121.27 414.22 1106.57 401.116 1083.82 401.116C1058.1 401.116 1042.54 418.268 1042.54 443.357C1042.54 468.339 1057.99 485.545 1083.88 485.545ZM1175.35 373.897H1129.81V393.02H1150.1V489.06H1129.81V508.183H1175.35V373.897Z" fill="white"/>
<defs>
<linearGradient id="paint0_linear" x1="0" y1="857" x2="1870.5" y2="3.80957e-05" gradientUnits="userSpaceOnUse">
<stop stop-color="#8F00FF"/>
<stop offset="1" stop-color="#220059"/>
</linearGradient>
</defs>
</svg>
